{
  "title": "American Horror Story S06E01 Chapter 1 1080P WEB-DL DD5 1 H 264",
  "uid": 15840107,
  "size": 1862549574,
  "categoryP": "video",
  "categoryS": "hd___tv_shows",
  "magnet": "?xt=urn:btih:30ec89f3ae6cc013c6a41db5cf9619aa9958d4d7&amp;dn=American+Horror+Story+S06E01+Chapter+1+1080P+WEB-DL+DD5+1+H+264&amp;tr=udp%3A%2F%2Ftracker.leechers-paradise.org%3A6969&amp;tr=udp%3A%2F%2Fzer0day.ch%3A1337&amp;tr=udp%3A%2F%2Fopen.demonii.com%3A1337&amp;tr=udp%3A%2F%2Ftracker.coppersurfer.tk%3A6969&amp;tr=udp%3A%2F%2Fexodus.desync.com%3A6969",
  "seeders": 71,
  "leechers": 5,
  "uploader": "jmanwf",
  "files": 1,
  "time": 1474029416,
  "description": "After Shelby and Matt Miller are attacked by a street gang in LA and Shelby miscarries, they move to a quiet farmhouse in North Carolina. However, the interracial couple soon discover that their problems have only begun.\r\n\r\n\r\nVideo\r\nID : 3\r\nFormat : AVC\r\nFormat/Info : Advanced Video Codec\r\nFormat profile :   \r\nFormat settings, CABAC : Yes\r\nFormat settings, ReFrames : 4 frames\r\nCodec ID : V_MPEG4/ISO/AVC\r\nDuration : 44 min 37 s\r\nBit rate : 5 053 kb/s\r\nWidth : 1 916 pixels\r\nHeight : 1 076 pixels\r\nDisplay aspect ratio : 16:9\r\nFrame rate mode : Constant\r\nFrame rate : 23.976 (23976/1000) FPS\r\nColor space : YUV\r\nChroma subsampling : 4:2:0\r\nBit depth : 8 bits\r\nScan type : Progressive\r\nBits/(Pixel*Frame) : 0.102\r\nStream size : 1.57 GiB (91%)\r\nLanguage : English\r\nDefault : Yes\r\nForced : No\r\nColor range : Limited\r\nColor primaries : BT.709\r\nTransfer characteristics : BT.709\r\nMatrix coefficients : BT.709\r\n\r\nAudio #1\r\nID : 1\r\nFormat : AAC\r\nFormat/Info : Advanced Audio Codec\r\nFormat profile : LC\r\nCodec ID : A_AAC\r\nDuration : 44 min 37 s\r\nBit rate : 125 kb/s\r\nChannel(s) : 2 channels\r\nChannel positions : Front: L R\r\nSampling rate : 48.0 kHz\r\nFrame rate : 46.875 FPS (1024 spf)\r\nCompression mode : Lossy\r\nStream size : 40.0 MiB (2%)\r\nLanguage : English\r\nDefault : Yes\r\nForced : No\r\n\r\nAudio #2\r\nID : 2\r\nFormat : AC-3\r\nFormat/Info : Audio Coding 3\r\nMode extension : CM (complete main)\r\nFormat settings, Endianness : Big\r\nCodec ID : A_AC3\r\nDuration : 44 min 37 s\r\nBit rate mode : Constant\r\nBit rate : 384 kb/s\r\nChannel(s) : 6 channels\r\nChannel positions : Front: L C R, Side: L R, LFE\r\nSampling rate : 48.0 kHz\r\nFrame rate : 31.250 FPS (1536 spf)\r\nCompression mode : Lossy\r\nStream size : 123 MiB (7%)\r\nLanguage : English\r\nDefault : No\r\nForced : No\r\n\r\nText\r\nID : 4\r\nFormat : UTF-8\r\nCodec ID : S_TEXT/UTF8\r\nCodec ID/Info : UTF-8 Plain Text\r\nDuration : 44 min 34 s\r\nBit rate : 82 b/s\r\nCount of elements : 695\r\nStream size : 26.9 KiB (0%)\r\nLanguage : English\r\nDefault : Yes\r\nForced : No",
  "parsed": {
    "xt": "urn:btih:30ec89f3ae6cc013c6a41db5cf9619aa9958d4d7",
    "dn": "American Horror Story S06E01 Chapter 1 1080P WEB-DL DD5 1 H 264",
    "tr": [
      "udp://exodus.desync.com:6969",
      "udp://open.demonii.com:1337",
      "udp://tracker.coppersurfer.tk:6969",
      "udp://tracker.leechers-paradise.org:6969",
      "udp://zer0day.ch:1337"
    ],
    "infoHash": "30ec89f3ae6cc013c6a41db5cf9619aa9958d4d7",
    "infoHashBuffer": {
      "type": "Buffer",
      "data": [
        48,
        236,
        137,
        243,
        174,
        108,
        192,
        19,
        198,
        164,
        29,
        181,
        207,
        150,
        25,
        170,
        153,
        88,
        212,
        215
      ]
    },
    "name": "American Horror Story S06E01 Chapter 1 1080P WEB-DL DD5 1 H 264",
    "announce": [
      "udp://exodus.desync.com:6969",
      "udp://open.demonii.com:1337",
      "udp://tracker.coppersurfer.tk:6969",
      "udp://tracker.leechers-paradise.org:6969",
      "udp://zer0day.ch:1337"
    ],
    "urlList": []
  },
  "previous": 76,
  "peers": 61,
  "last_updated": "2016-12-24T21:27:43.300Z"
}